<?xml version="1.0" encoding="UTF-8" standalone="no"?>
<svg
   xmlns:dc="http://purl.org/dc/elements/1.1/"
   xmlns:cc="http://creativecommons.org/ns#"
   xmlns:rdf="http://www.w3.org/1999/02/22-rdf-syntax-ns#"
   xmlns:svg="http://www.w3.org/2000/svg"
   xmlns="http://www.w3.org/2000/svg"
   viewBox="0 0 793.33331 1122.6667"
   height="1122.6667"
   width="793.33331"
   xml:space="preserve"
   id="svg2"
   version="1.1"><metadata
     id="metadata8"><rdf:RDF><cc:Work
         rdf:about=""><dc:format>image/svg+xml</dc:format><dc:type
           rdf:resource="http://purl.org/dc/dcmitype/StillImage" /></cc:Work></rdf:RDF></metadata><defs
     id="defs6"><clipPath
       id="clipPath18"
       clipPathUnits="userSpaceOnUse"><path
         style="clip-rule:evenodd"
         id="path16"
         d="M 0,0.1 H 595.2 V 841.9 H 0 Z" /></clipPath></defs><g
     transform="matrix(1.3333333,0,0,-1.3333333,0,1122.6667)"
     id="g10"><g
       id="g12"><g
         clip-path="url(#clipPath18)"
         id="g14"><g
           id="g20"><text
             id="text24"
             style="font-variant:normal;font-weight:bold;font-size:20px;font-family:Cambria;-inkscape-font-specification:Cambria-Bold;writing-mode:lr-tb;fill:#000000;fill-opacity:1;fill-rule:nonzero;stroke:none"
             transform="matrix(1,0,0,-1,268,753.4)"><tspan
               id="tspan22"
               y="0"
               x="0 11 21.6 39.48 51.380001 63.279999 72.18">Tempura</tspan></text>
</g><g
           id="g26" /><g
           id="g28"><text
             id="text32"
             style="font-variant:normal;font-weight:bold;font-size:12px;font-family:Arial;-inkscape-font-specification:Arial-BoldMT;writing-mode:lr-tb;fill:#000000;fill-opacity:1;fill-rule:nonzero;stroke:none"
             transform="matrix(1,0,0,-1,279.832,723.9)"><tspan
               id="tspan30"
               y="0"
               x="0 3.9960001 7.296 13.98 17.280001 23.964001 27.959999 35.256001 41.939999 48.624001 51.924">( 6 stück )</tspan></text>
</g><g
           id="g34"><text
             id="text38"
             style="font-variant:normal;font-weight:bold;font-size:12px;font-family:Arial;-inkscape-font-specification:Arial-BoldMT;writing-mode:lr-tb;fill:#000000;fill-opacity:1;fill-rule:nonzero;stroke:none"
             transform="matrix(1,0,0,-1,56.8,696.3)"><tspan
               id="tspan36"
               y="0"
               x="0 6.684 13.368 20.052 23.351999 26.652 33.948002 40.632 48.023998 55.32 58.619999 65.304001 68.603996 75 81.683998 92.375999 99.671997 106.968 111.66 118.344">175. Veggie Tempura </tspan></text>
</g><g
           id="g40"><text
             id="text44"
             style="font-variant:normal;font-weight:normal;font-size:12px;font-family:ArialMT;-inkscape-font-specification:ArialMT;writing-mode:lr-tb;fill:#000000;fill-opacity:1;fill-rule:nonzero;stroke:none"
             transform="matrix(1,0,0,-1,479.2,696.3)"><tspan
               id="tspan42"
               y="0"
               x="0 5.6999998 12.384 15.684 22.368">11.50</tspan></text>
</g><g
           id="g46"><text
             id="text50"
             style="font-variant:normal;font-weight:normal;font-size:12px;font-family:ArialMT;-inkscape-font-specification:ArialMT;writing-mode:lr-tb;fill:#000000;fill-opacity:1;fill-rule:nonzero;stroke:none"
             transform="matrix(1,0,0,-1,56.8,668.7)"><tspan
               id="tspan48"
               y="0"
               x="0 7.8959999 13.8 20.483999 26.483999 33.084 39.768002 46.452 49.751999 53.136002 62.436001 69.120003 73.115997 79.115997 85.800003 89.099998 92.400002 102.396 109.08 115.764 122.364 129.048 132.43201 139.032 145.716 152.39999 155.7 162.996 166.992 169.67999 175.67999 181.67999 188.364 194.364 201.048 206.952">Avocado, Gurke, Mango und Frischkäse</tspan></text>
</g><g
           id="g52"><text
             id="text56"
             style="font-variant:normal;font-weight:bold;font-size:12px;font-family:Arial;-inkscape-font-specification:Arial-BoldMT;writing-mode:lr-tb;fill:#000000;fill-opacity:1;fill-rule:nonzero;stroke:none"
             transform="matrix(1,0,0,-1,56.8,641.1)"><tspan
               id="tspan54"
               y="0"
               x="0 6.684 13.368 20.052 23.351999 26.652 33.948002 41.243999 48.636002 55.931999 59.928001 63.228001 69.912003 76.596001 83.987999 87.288002 93.683998 100.368 111.06 118.356 125.652 130.34399 137.028">176. Thunfisch Tempura </tspan></text>
</g><g
           id="g58"><text
             id="text62"
             style="font-variant:normal;font-weight:normal;font-size:12px;font-family:ArialMT;-inkscape-font-specification:ArialMT;writing-mode:lr-tb;fill:#000000;fill-opacity:1;fill-rule:nonzero;stroke:none"
             transform="matrix(1,0,0,-1,479.2,641.1)"><tspan
               id="tspan60"
               y="0"
               x="0 6.5999999 13.284 16.584 23.268">13.90</tspan></text>
</g><g
           id="g64"><text
             id="text68"
             style="font-variant:normal;font-weight:normal;font-size:12px;font-family:ArialMT;-inkscape-font-specification:ArialMT;writing-mode:lr-tb;fill:#000000;fill-opacity:1;fill-rule:nonzero;stroke:none"
             transform="matrix(1,0,0,-1,56.8,613.5)"><tspan
               id="tspan66"
               y="0"
               x="0 7.296 13.98 20.664 27.348 30.648001 33.335999 39.335999 45.335999 52.02 55.32 58.02 65.82 71.723999 78.407997 84.407997 91.092003 97.776001 104.46 107.76 114.36 121.044 127.728 131.028 138.32401 142.32001 145.008 151.008 157.008 163.692 169.692 176.37601 182.37601">Thunfisch, Avocado und Frischkäse</tspan></text>
</g><g
           id="g70"><text
             id="text74"
             style="font-variant:normal;font-weight:bold;font-size:12px;font-family:Arial;-inkscape-font-specification:Arial-BoldMT;writing-mode:lr-tb;fill:#000000;fill-opacity:1;fill-rule:nonzero;stroke:none"
             transform="matrix(1,0,0,-1,56.8,585.9)"><tspan
               id="tspan72"
               y="0"
               x="0 6.684 13.368 20.052 23.351999 26.652 33.948002 40.632 47.316002 54.612 61.296001 64.596001 70.991997 77.676003 88.367996 95.664001 102.96 107.652 114.336">177. Lachs Tempura </tspan></text>
</g><g
           id="g76"><text
             id="text80"
             style="font-variant:normal;font-weight:normal;font-size:12px;font-family:ArialMT;-inkscape-font-specification:ArialMT;writing-mode:lr-tb;fill:#000000;fill-opacity:1;fill-rule:nonzero;stroke:none"
             transform="matrix(1,0,0,-1,479.2,585.9)"><tspan
               id="tspan78"
               y="0"
               x="0 6.5999999 13.284 16.584 23.268">13.50</tspan></text>
</g><g
           id="g82"><text
             id="text86"
             style="font-variant:normal;font-weight:normal;font-size:12px;font-family:ArialMT;-inkscape-font-specification:ArialMT;writing-mode:lr-tb;fill:#000000;fill-opacity:1;fill-rule:nonzero;stroke:none"
             transform="matrix(1,0,0,-1,56.8,558.3)"><tspan
               id="tspan84"
               y="0"
               x="0 6.684 13.368 19.368 26.052 32.051998 35.352001 38.051998 45.852001 51.756001 58.439999 64.440002 71.124001 77.723999 84.407997 87.792 94.391998 101.076 107.76 111.06 118.356 122.352 125.04 131.03999 137.03999 143.724 149.724 156.408 162.408">Lachs, Avocado und Frischkäse</tspan></text>
</g><g
           id="g88"><text
             id="text92"
             style="font-variant:normal;font-weight:bold;font-size:12px;font-family:Arial;-inkscape-font-specification:Arial-BoldMT;writing-mode:lr-tb;fill:#000000;fill-opacity:1;fill-rule:nonzero;stroke:none"
             transform="matrix(1,0,0,-1,56.8,530.7)"><tspan
               id="tspan90"
               y="0"
               x="0 6.684 13.368 20.052 23.351999 26.652 34.644001 41.939999 45.324001 48.624001 55.02 61.703999 72.396004 79.692001 86.987999 91.68 98.363998">178. Ebi Tempura </tspan></text>
</g><g
           id="g94"><text
             id="text98"
             style="font-variant:normal;font-weight:normal;font-size:12px;font-family:ArialMT;-inkscape-font-specification:ArialMT;writing-mode:lr-tb;fill:#000000;fill-opacity:1;fill-rule:nonzero;stroke:none"
             transform="matrix(1,0,0,-1,479.2,530.7)"><tspan
               id="tspan96"
               y="0"
               x="0 6.5999999 13.284 16.584 23.268">13.50</tspan></text>
</g><g
           id="g100"><text
             id="text104"
             style="font-variant:normal;font-weight:normal;font-size:12px;font-family:ArialMT;-inkscape-font-specification:ArialMT;writing-mode:lr-tb;fill:#000000;fill-opacity:1;fill-rule:nonzero;stroke:none"
             transform="matrix(1,0,0,-1,56.8,503.1)"><tspan
               id="tspan102"
               y="0"
               x="0 9.3000002 15.984 19.98 26.664 33.348 35.952 42.636002 49.32 52.619999 56.004002 65.304001 71.987999 75.984001 81.984001 88.667999 91.968002 98.568001 105.252 111.936 115.236 122.532 126.528 129.216 135.216 141.216 147.89999 153.89999 160.584 166.584">Garnelen, Gurke und Frischkäse</tspan></text>
</g><g
           id="g106"><text
             id="text110"
             style="font-variant:normal;font-weight:bold;font-size:12px;font-family:Arial;-inkscape-font-specification:Arial-BoldMT;writing-mode:lr-tb;fill:#000000;fill-opacity:1;fill-rule:nonzero;stroke:none"
             transform="matrix(1,0,0,-1,56.8,475.5)"><tspan
               id="tspan108"
               y="0"
               x="0 6.684 13.368 20.052 23.351999 26.652 34.644001 41.939999 45.936001 52.619999 56.004002 62.304001 68.987999 79.68 87.071999 94.367996 99.059998 105.744">179. Ente Tempura </tspan></text>
</g><g
           id="g112"><text
             id="text116"
             style="font-variant:normal;font-weight:normal;font-size:12px;font-family:ArialMT;-inkscape-font-specification:ArialMT;writing-mode:lr-tb;fill:#000000;fill-opacity:1;fill-rule:nonzero;stroke:none"
             transform="matrix(1,0,0,-1,479.2,475.5)"><tspan
               id="tspan114"
               y="0"
               x="0 6.5999999 13.284 16.584 23.268">13.50</tspan></text>
</g><g
           id="g118"><text
             id="text122"
             style="font-variant:normal;font-weight:normal;font-size:12px;font-family:ArialMT;-inkscape-font-specification:ArialMT;writing-mode:lr-tb;fill:#000000;fill-opacity:1;fill-rule:nonzero;stroke:none"
             transform="matrix(1,0,0,-1,56.8,447.9)"><tspan
               id="tspan120"
               y="0"
               x="0 7.9920001 14.676 17.976 24.66 27.959999 31.344 40.644001 47.327999 51.324001 57.324001 64.008003 67.307999 73.907997 80.592003 87.276001 90.660004 97.956001 101.952 104.64 110.64 116.544 123.228 129.228 135.912 141.912">Ente, Gurke und Frischkäse</tspan></text>
</g></g></g></g></svg>